<svg xmlns="http://www.w3.org/2000/svg" xmlns:xlink="http://www.w3.org/1999/xlink" id="icons" x="0px" y="0px" viewBox="0 0 256 256" style="enable-background:new 0 0 256 256;" xml:space="preserve"><style type="text/css">	.st0{fill:#E9CBFF;}	.st1{fill:#E0AAFF;}	.st2{fill:#C77DFF;}	.st3{fill:#240046;}	.st4{fill:#FFFFFF;}	.st5{fill:#F9EEFF;}</style><g>	<g>		<circle class="st0" cx="128.5" cy="132.5" r="98.5"></circle>	</g>	<g>		<g>							<ellipse transform="matrix(0.9598 -0.2805 0.2805 0.9598 -27.2743 67.304)" class="st1" cx="221.5" cy="128.9" rx="21.5" ry="21.5"></ellipse>		</g>		<g>			<path class="st2" d="M229.2,108.9c5,3.9,8.1,10,8.1,16.8c0,11.9-9.6,21.5-21.5,21.5c-2.7,0-5.3-0.5-7.7-1.4    c3.7,2.9,8.3,4.7,13.4,4.7c11.9,0,21.5-9.6,21.5-21.5C243,119.8,237.2,111.9,229.2,108.9z"></path>		</g>		<g>			<g>				<path class="st3" d="M222.2,139.1h-1.4c-2.9,0-5.3-2.3-5.4-5.2c0-0.1,0-0.1,0-0.2v-0.1h4c0,0.8,0.7,1.5,1.5,1.5h1.4     c0.8,0,1.5-0.7,1.5-1.5c0-0.4-0.2-0.8-0.5-1.1l-5.2-3.9c-1.3-1-2.1-2.6-2.1-4.2c0-3,2.4-5.5,5.5-5.5h1.4c2.9,0,5.3,2.3,5.4,5.2     c0,0.1,0,0.1,0,0.2v0.1h-4c0-0.8-0.7-1.5-1.5-1.5h-1.4c-0.8,0-1.5,0.7-1.5,1.5c0,0.4,0.2,0.8,0.5,1.1l5.2,3.9     c1.3,1,2.1,2.6,2.1,4.2C227.7,136.7,225.2,139.1,222.2,139.1z"></path>			</g>			<g>				<path class="st3" d="M221.8,121.9c-1.1,0-2-0.9-2-2v-1.7c0-1.1,0.9-2,2-2c1.1,0,2,0.9,2,2v1.7     C223.8,121,222.9,121.9,221.8,121.9z"></path>			</g>			<g>				<path class="st3" d="M221.8,141.9c-1.1,0-2-0.9-2-2v-1.7c0-1.1,0.9-2,2-2c1.1,0,2,0.9,2,2v1.7     C223.8,141,222.9,141.9,221.8,141.9z"></path>			</g>		</g>	</g>	<g>		<g>							<ellipse transform="matrix(0.9735 -0.2286 0.2286 0.9735 -24.7592 44.0838)" class="st1" cx="177.9" cy="128.9" rx="12" ry="12"></ellipse>		</g>		<g>			<path class="st2" d="M182.2,117.7c2.8,2.2,4.6,5.6,4.6,9.4c0,6.7-5.4,12-12,12c-1.5,0-3-0.3-4.3-0.8c2.1,1.6,4.7,2.6,7.5,2.6    c6.7,0,12-5.4,12-12C190,123.8,186.8,119.4,182.2,117.7z"></path>		</g>		<g>			<g>				<path class="st3" d="M178.4,135.5h-0.8c-2.1,0-3.8-1.6-3.9-3.7c0-0.1,0-0.1,0-0.2v-0.1l4.5,0l-2.7-2c-1-0.7-1.5-1.9-1.5-3.1     c0-2.2,1.8-3.9,3.9-3.9h0.8c2.1,0,3.8,1.6,3.9,3.7c0,0.1,0,0.1,0,0.2h0c0,0,0,0,0,0.1l-4.5,0l2.7,2c1,0.7,1.5,1.9,1.5,3.1     C182.3,133.8,180.5,135.5,178.4,135.5z"></path>			</g>			<g>				<path class="st3" d="M178.1,125.9c-1.1,0-2-0.9-2-2v-0.9c0-1.1,0.9-2,2-2c1.1,0,2,0.9,2,2v0.9     C180.1,125,179.2,125.9,178.1,125.9z"></path>			</g>			<g>				<path class="st3" d="M178.1,137.1c-1.1,0-2-0.9-2-2v-0.9c0-1.1,0.9-2,2-2c1.1,0,2,0.9,2,2v0.9     C180.1,136.2,179.2,137.1,178.1,137.1z"></path>			</g>		</g>	</g>	<g>		<g>			<path class="st4" d="M95.2,98V73.3c0-3.4,3.6-5.6,6.6-4c10,5.2,28.4,16.3,34.1,29.9L95.2,98z"></path>		</g>		<g>			<path class="st5" d="M122.5,82.7C122.5,82.7,122.5,82.7,122.5,82.7c-9.8,0-19,2.1-27.3,5.4v10l40.7,1.2    C133.4,93.1,128.3,87.5,122.5,82.7z"></path>		</g>		<g>			<path class="st5" d="M83,160.5v17.4c0,2.4,2.6,4,4.7,2.8c7-3.7,20-11.5,24-21.1L83,160.5z"></path>		</g>		<g>			<path class="st3" d="M139,101.2l-45.8-1.3V73.3c0-2.3,1.2-4.4,3.2-5.6c2-1.2,4.4-1.3,6.4-0.2c10.5,5.5,29.1,16.8,35,30.9    L139,101.2z M97.2,96.1l35.5,1C126.1,85.4,110.3,75.9,101,71c-0.8-0.4-1.7-0.4-2.5,0.1c-0.8,0.5-1.2,1.3-1.2,2.2V96.1z"></path>		</g>		<g>			<path class="st3" d="M86.2,183.2c-0.9,0-1.9-0.3-2.7-0.8c-1.6-1-2.5-2.6-2.5-4.5v-19.4l33.7-1l-1.2,2.9    c-4.2,10.1-17.4,18.2-24.9,22.1C87.8,183,87,183.2,86.2,183.2z M85,162.5v15.5c0,0.6,0.4,0.9,0.6,1c0.2,0.1,0.6,0.3,1.2,0    c6.2-3.3,16.7-9.6,21.6-17.2L85,162.5z"></path>		</g>		<g>			<path class="st4" d="M171.2,151.5c0.9,0.9,0.8,2.5-0.3,3.2c-12.1,8-29.3,14-48.4,14c-37,0-67.5-28.5-67-38c0.4-7.5,30-38,67-38    c18.5,0,35.4,6.4,47.5,14.3c1.1,0.7,1.3,2.3,0.3,3.2l-17.7,17.7c-1.4,1.4-1.4,3.7,0,5.1L171.2,151.5z"></path>		</g>		<g>			<g>				<path class="st5" d="M167.5,147.8c-11.8,6.9-27.6,11.9-45,11.9c-31.8,0-58.7-21-65.4-33c-1,1.6-1.5,3-1.6,4     c-0.5,9.5,30,38,67,38c19.1,0,36.3-6,48.4-14c1.1-0.7,1.3-2.3,0.3-3.2L167.5,147.8z"></path>			</g>		</g>		<g>			<path class="st3" d="M122.5,170.7c-25.1,0-48.9-13.3-61.3-26.4c-3-3.1-7.9-9.1-7.7-13.7c0.3-5.1,9.3-15.3,20.6-23.3    c8.7-6.2,26.6-16.6,48.4-16.6c22.8,0,40.3,9.2,48.6,14.7c1,0.7,1.7,1.8,1.8,3c0.1,1.2-0.3,2.4-1.2,3.3l-17.7,17.7    c-0.3,0.3-0.5,0.7-0.5,1.2c0,0.4,0.2,0.8,0.5,1.2l18.6,18.5c0.9,0.9,1.3,2.1,1.2,3.3c-0.1,1.2-0.8,2.3-1.8,3    C158.1,165.4,140.1,170.7,122.5,170.7z M122.5,94.7c-20.7,0-37.7,9.9-46.1,15.8c-12.4,8.8-18.8,17.7-18.9,20.3    c-0.1,1.7,1.6,5.5,6.6,10.8c11.9,12.5,34.5,25.1,58.4,25.1c16.8,0,34.1-5,47.3-13.6l1.4-1.5l-1.4,1.4l-18.6-18.5    c-1.1-1.1-1.7-2.5-1.7-4c0-1.5,0.6-2.9,1.7-4l17.7-17.7C160.9,103.4,144.2,94.7,122.5,94.7z"></path>		</g>		<g>			<path class="st4" d="M54.7,132.1c-4.3,4.3-18.8,2.8-29.4-7.2c-10.6-10-11.6-26.4-8.9-29c2.1-2,18.8-2.8,29.4,7.2    C56.3,113.2,58.2,128.7,54.7,132.1z"></path>		</g>		<g>			<path class="st4" d="M54.7,136c-4.3-4.3-18.8-2.8-29.4,7.2c-10.6,10-11.6,26.4-8.9,28.9c2.1,2,18.8,2.8,29.4-7.2    C56.3,155,58.2,139.5,54.7,136z"></path>		</g>		<g>			<g>				<path class="st5" d="M56,139.1c0.5,5.4-6.5,17.5-18.7,22.7c-7.7,3.3-16,2.5-21.9,0.8c-0.7,4.7-0.2,8.4,0.9,9.5     c2.1,2,18.8,2.8,29.4-7.2C54.3,156.9,57.1,145.1,56,139.1z"></path>			</g>			<g>				<path class="st5" d="M55.6,137.5c-0.2-0.6-0.5-1.1-0.9-1.5c-0.4-0.4-0.9-0.7-1.4-1C54.3,135.7,55.1,136.6,55.6,137.5z"></path>			</g>		</g>		<g>			<path class="st3" d="M47.2,136.4c-7.1,0-16.3-3.3-23.4-10c-8-7.5-10.8-18.1-10.8-25c0-2.3,0.3-5.4,1.9-6.9    c3.3-3.2,21.3-3.1,32.2,7.2c8.1,7.6,11.1,17.8,11.2,24.2c0,2.4-0.3,5.7-2.2,7.6l0,0C54.2,135.4,51,136.4,47.2,136.4z M23,96.7    c-2.8,0-4.8,0.4-5.3,0.8c-1.6,1.9-0.8,16.8,9,26c10.2,9.6,23.4,10.5,26.7,7.2l0,0c0.5-0.5,1.1-2,1-4.7c-0.1-6.1-3.2-15-9.9-21.4    C37.6,98.3,28.7,96.7,23,96.7z"></path>		</g>		<g>			<path class="st3" d="M23,175.4c-3.9,0-6.9-0.7-8.1-1.8c-1.6-1.5-1.9-4.6-1.9-6.9c0-6.8,2.9-17.5,10.8-25    c10.9-10.3,26.8-12.5,32.2-7.1c1.9,1.9,2.2,5.2,2.2,7.6c-0.1,6.4-3.1,16.6-11.2,24.2C40.1,173,30.1,175.4,23,175.4z M47.2,135.7    c-5.6,0-13.7,2.5-20.6,8.9c-9.8,9.2-10.6,24.1-8.9,26.1c1.7,1.1,16.7,2.2,26.7-7.2c6.7-6.3,9.8-15.3,9.9-21.4    c0-2.7-0.5-4.2-1-4.7l0,0C52.2,136.3,50,135.7,47.2,135.7z"></path>		</g>		<g>			<path class="st3" d="M148.6,166.9c-0.5,0-1.1-0.2-1.5-0.7C138,156,133,143.4,133,130.7c0-12.5,5-25,14.2-35.1    c0.7-0.8,2-0.9,2.8-0.1c0.8,0.7,0.9,2,0.1,2.8c-8.5,9.4-13.2,20.9-13.2,32.5c0,11.8,4.6,23.4,13.1,32.9c0.7,0.8,0.7,2.1-0.2,2.8    C149.5,166.7,149,166.9,148.6,166.9z"></path>		</g>		<g>			<path class="st3" d="M123.9,160.4c-0.5,0-1.1-0.2-1.5-0.7c-6.9-7.8-10.7-17.4-10.7-27.1c0-9.5,3.8-19,10.8-26.8    c0.7-0.8,2-0.9,2.8-0.1c0.8,0.7,0.9,2,0.1,2.8c-6.3,7-9.8,15.5-9.8,24.1c0,8.7,3.5,17.4,9.7,24.4c0.7,0.8,0.7,2.1-0.2,2.8    C124.8,160.3,124.4,160.4,123.9,160.4z"></path>		</g>		<g>			<path class="st3" d="M105.6,154.2c-0.5,0-1.1-0.2-1.5-0.7c-5.3-5.9-8.2-13.3-8.2-20.7c0-7.3,2.9-14.6,8.3-20.5    c0.7-0.8,2-0.9,2.8-0.1c0.8,0.7,0.9,2,0.1,2.8c-4.7,5.2-7.3,11.5-7.3,17.8c0,6.5,2.6,12.9,7.2,18.1c0.7,0.8,0.7,2.1-0.2,2.8    C106.6,154,106.1,154.2,105.6,154.2z"></path>		</g>		<g>			<path class="st3" d="M152,116.2h-2c-1.1,0-2-0.9-2-2c0-1.1,0.9-2,2-2h2c1.1,0,2,0.9,2,2C154,115.3,153.1,116.2,152,116.2z"></path>		</g>	</g>	<g>		<path class="st3" d="M212,79c-3.6,0-5.5-1.3-7.1-2.3c-1.4-0.9-2.5-1.7-4.9-1.7c-2.4,0-3.5,0.7-4.9,1.7c-1.6,1-3.5,2.3-7.1,2.3   c-3.6,0-5.5-1.3-7.1-2.3c-1.4-0.9-2.5-1.7-4.9-1.7c-1.1,0-2-0.9-2-2s0.9-2,2-2c3.6,0,5.5,1.3,7.1,2.3c1.4,0.9,2.5,1.7,4.9,1.7   c2.4,0,3.5-0.7,4.9-1.7c1.6-1,3.5-2.3,7.1-2.3c3.6,0,5.5,1.3,7.1,2.3c1.4,0.9,2.5,1.7,4.9,1.7c2.4,0,3.5-0.7,4.9-1.7   c1.6-1,3.5-2.3,7.1-2.3c1.1,0,2,0.9,2,2s-0.9,2-2,2c-2.4,0-3.5,0.7-4.9,1.7C217.5,77.7,215.6,79,212,79z"></path>	</g>	<g>		<path class="st3" d="M215,185c-3.6,0-5.5-1.3-7.1-2.3c-1.4-0.9-2.5-1.7-4.9-1.7c-2.4,0-3.5,0.7-4.9,1.7c-1.6,1-3.5,2.3-7.1,2.3   c-3.6,0-5.5-1.3-7.1-2.3c-1.4-0.9-2.5-1.7-4.9-1.7c-1.1,0-2-0.9-2-2s0.9-2,2-2c3.6,0,5.5,1.3,7.1,2.3c1.4,0.9,2.5,1.7,4.9,1.7   c2.4,0,3.5-0.7,4.9-1.7c1.6-1,3.5-2.3,7.1-2.3c3.6,0,5.5,1.3,7.1,2.3c1.4,0.9,2.5,1.7,4.9,1.7c2.4,0,3.5-0.7,4.9-1.7   c1.6-1,3.5-2.3,7.1-2.3c1.1,0,2,0.9,2,2s-0.9,2-2,2c-2.4,0-3.5,0.7-4.9,1.7C220.5,183.7,218.6,185,215,185z"></path>	</g>	<g>		<path class="st3" d="M158,39c-3.6,0-5.5-1.3-7.1-2.3c-1.4-0.9-2.5-1.7-4.9-1.7c-2.4,0-3.5,0.7-4.9,1.7c-1.6,1-3.5,2.3-7.1,2.3   c-3.6,0-5.5-1.3-7.1-2.3c-1.4-0.9-2.5-1.7-4.9-1.7c-1.1,0-2-0.9-2-2s0.9-2,2-2c3.6,0,5.5,1.3,7.1,2.3c1.4,0.9,2.5,1.7,4.9,1.7   c2.4,0,3.5-0.7,4.9-1.7c1.6-1,3.5-2.3,7.1-2.3c3.6,0,5.5,1.3,7.1,2.3c1.4,0.9,2.5,1.7,4.9,1.7c2.4,0,3.5-0.7,4.9-1.7   c1.6-1,3.5-2.3,7.1-2.3c1.1,0,2,0.9,2,2s-0.9,2-2,2c-2.4,0-3.5,0.7-4.9,1.7C163.5,37.7,161.6,39,158,39z"></path>	</g>	<g>		<path class="st3" d="M74,204c-3.6,0-5.5-1.3-7.1-2.3c-1.4-0.9-2.5-1.7-4.9-1.7c-2.4,0-3.5,0.7-4.9,1.7c-1.6,1-3.5,2.3-7.1,2.3   c-3.6,0-5.5-1.3-7.1-2.3c-1.4-0.9-2.5-1.7-4.9-1.7c-1.1,0-2-0.9-2-2s0.9-2,2-2c3.6,0,5.5,1.3,7.1,2.3c1.4,0.9,2.5,1.7,4.9,1.7   c2.4,0,3.5-0.7,4.9-1.7c1.6-1,3.5-2.3,7.1-2.3c3.6,0,5.5,1.3,7.1,2.3c1.4,0.9,2.5,1.7,4.9,1.7c2.4,0,3.5-0.7,4.9-1.7   c1.6-1,3.5-2.3,7.1-2.3c1.1,0,2,0.9,2,2s-0.9,2-2,2c-2.4,0-3.5,0.7-4.9,1.7C79.5,202.7,77.6,204,74,204z"></path>	</g>	<g>		<path class="st3" d="M165,229c-3.6,0-5.5-1.3-7.1-2.3c-1.4-0.9-2.5-1.7-4.9-1.7c-2.4,0-3.5,0.7-4.9,1.7c-1.6,1-3.5,2.3-7.1,2.3   c-3.6,0-5.5-1.3-7.1-2.3c-1.4-0.9-2.5-1.7-4.9-1.7c-1.1,0-2-0.9-2-2s0.9-2,2-2c3.6,0,5.5,1.3,7.1,2.3c1.4,0.9,2.5,1.7,4.9,1.7   c2.4,0,3.5-0.7,4.9-1.7c1.6-1,3.5-2.3,7.1-2.3c3.6,0,5.5,1.3,7.1,2.3c1.4,0.9,2.5,1.7,4.9,1.7c2.4,0,3.5-0.7,4.9-1.7   c1.6-1,3.5-2.3,7.1-2.3c1.1,0,2,0.9,2,2s-0.9,2-2,2c-2.4,0-3.5,0.7-4.9,1.7C170.5,227.7,168.6,229,165,229z"></path>	</g>	<g>		<path class="st3" d="M65,61c-3.6,0-5.5-1.3-7.1-2.3C56.5,57.7,55.4,57,53,57c-2.4,0-3.5,0.7-4.9,1.7c-1.6,1-3.5,2.3-7.1,2.3   c-3.6,0-5.5-1.3-7.1-2.3C32.5,57.7,31.4,57,29,57c-1.1,0-2-0.9-2-2s0.9-2,2-2c3.6,0,5.5,1.3,7.1,2.3c1.4,0.9,2.5,1.7,4.9,1.7   c2.4,0,3.5-0.7,4.9-1.7c1.6-1,3.5-2.3,7.1-2.3c3.6,0,5.5,1.3,7.1,2.3c1.4,0.9,2.5,1.7,4.9,1.7c2.4,0,3.5-0.7,4.9-1.7   c1.6-1,3.5-2.3,7.1-2.3c1.1,0,2,0.9,2,2s-0.9,2-2,2c-2.4,0-3.5,0.7-4.9,1.7C70.5,59.7,68.6,61,65,61z"></path>	</g>	<g>		<circle class="st0" cx="216.5" cy="43.5" r="4.5"></circle>	</g>	<g>		<circle class="st0" cx="52.5" cy="224.5" r="4.5"></circle>	</g>	<g>		<circle class="st0" cx="79" cy="28" r="3"></circle>	</g>	<g>		<circle class="st0" cx="208" cy="218" r="3"></circle>	</g></g></svg>