<svg xmlns="http://www.w3.org/2000/svg" xmlns:xlink="http://www.w3.org/1999/xlink" id="icons" x="0px" y="0px" viewBox="0 0 256 256" style="enable-background:new 0 0 256 256;" xml:space="preserve"><style type="text/css">	.st0{fill:#E9CBFF;}	.st1{fill:#FFFFFF;}	.st2{fill:#F9EEFF;}	.st3{fill:#240046;}</style><g>	<g>		<circle class="st0" cx="127.9" cy="127" r="78"></circle>	</g>	<g>		<circle class="st0" cx="127.9" cy="20.7" r="4.3"></circle>	</g>	<g>		<circle class="st0" cx="235.3" cy="127.9" r="4.3"></circle>	</g>	<g>		<path class="st0" d="M123.7,235.3c0-2.4,1.9-4.3,4.3-4.3c2.4,0,4.3,1.9,4.3,4.3c0,2.4-1.9,4.3-4.3,4.3   C125.7,239.6,123.7,237.7,123.7,235.3z"></path>	</g>	<g>		<circle class="st0" cx="20.7" cy="128.1" r="4.3"></circle>	</g>	<g>		<polygon class="st1" points="32.9,209.1 48.6,224.9 217.1,56.5 225.8,32 201.3,40.7   "></polygon>	</g>	<g>					<rect x="10" y="131.7" transform="matrix(0.7071 -0.7071 0.7071 0.7071 -59.0175 131.4091)" class="st2" width="238.2" height="10.6"></rect>	</g>	<g>		<path class="st3" d="M176.1,99.4c-0.5,0-1-0.2-1.4-0.6c-0.8-0.8-0.8-2,0-2.8l40.6-40.6l7.1-20.1l-20.1,7.1l-40.2,40.2   c-0.8,0.8-2,0.8-2.8,0c-0.8-0.8-0.8-2,0-2.8L200.2,39l28.9-10.3l-10.3,28.9l-0.3,0.3l-41,41C177.1,99.2,176.6,99.4,176.1,99.4z"></path>	</g>	<g>		<path class="st3" d="M48.6,227.7l-18.6-18.6l51.4-51.4c0.8-0.8,2-0.8,2.8,0c0.8,0.8,0.8,2,0,2.8l-48.6,48.6l12.9,12.9l48.5-48.5   c0.8-0.8,2-0.8,2.8,0c0.8,0.8,0.8,2,0,2.8L48.6,227.7z"></path>	</g>	<g>		<path class="st3" d="M61.1,214.4c-0.5,0-1-0.2-1.4-0.6l-15.8-15.8c-0.8-0.8-0.8-2,0-2.8c0.8-0.8,2-0.8,2.8,0L62.5,211   c0.8,0.8,0.8,2,0,2.8C62.1,214.2,61.6,214.4,61.1,214.4z"></path>	</g>	<g>		<path class="st3" d="M217.1,58.5c-0.5,0-1-0.2-1.4-0.6l-15.8-15.8c-0.8-0.8-0.8-2,0-2.8c0.8-0.8,2-0.8,2.8,0l15.8,15.8   c0.8,0.8,0.8,2,0,2.8C218.1,58.3,217.6,58.5,217.1,58.5z"></path>	</g>	<g>		<path class="st3" d="M53.2,206.6c-0.5,0-1-0.2-1.4-0.6c-0.8-0.8-0.8-2,0-2.8l38.6-38.6c0.8-0.8,2-0.8,2.8,0c0.8,0.8,0.8,2,0,2.8   L54.6,206C54.2,206.4,53.7,206.6,53.2,206.6z"></path>	</g>	<g>		<path class="st3" d="M167.8,91.9c-0.5,0-1-0.2-1.4-0.6c-0.8-0.8-0.8-2,0-2.8l41-41c0.8-0.8,2-0.8,2.8,0c0.8,0.8,0.8,2,0,2.8   l-41,41C168.8,91.7,168.3,91.9,167.8,91.9z"></path>	</g>	<g>		<polygon class="st1" points="225.8,209.1 210,224.9 41.6,56.5 32.9,32 57.4,40.7   "></polygon>	</g>	<g>					<rect x="124.3" y="17.9" transform="matrix(0.7071 -0.7071 0.7071 0.7071 -58.896 131.7024)" class="st2" width="10.6" height="238.2"></rect>	</g>	<g>		<path class="st3" d="M82.6,99.4c-0.5,0-1-0.2-1.4-0.6L39.9,57.6L29.6,28.7L58.5,39l0.3,0.3l40.6,40.6c0.8,0.8,0.8,2,0,2.8   c-0.8,0.8-2,0.8-2.8,0L56.3,42.4l-20.1-7.1l7.1,20.1L84,96c0.8,0.8,0.8,2,0,2.8C83.6,99.2,83.1,99.4,82.6,99.4z"></path>	</g>	<g>		<path class="st3" d="M210,227.7l-51.3-51.3c-0.8-0.8-0.8-2,0-2.8c0.8-0.8,2-0.8,2.8,0l48.5,48.5l12.9-12.9l-48.6-48.6   c-0.8-0.8-0.8-2,0-2.8c0.8-0.8,2-0.8,2.8,0l51.4,51.4L210,227.7z"></path>	</g>	<g>		<path class="st3" d="M197.6,214.4c-0.5,0-1-0.2-1.4-0.6c-0.8-0.8-0.8-2,0-2.8l15.8-15.8c0.8-0.8,2-0.8,2.8,0c0.8,0.8,0.8,2,0,2.8   L199,213.9C198.6,214.2,198.1,214.4,197.6,214.4z"></path>	</g>	<g>		<path class="st3" d="M41.6,58.5c-0.5,0-1-0.2-1.4-0.6c-0.8-0.8-0.8-2,0-2.8l15.8-15.8c0.8-0.8,2-0.8,2.8,0c0.8,0.8,0.8,2,0,2.8   L43,57.9C42.6,58.3,42.1,58.5,41.6,58.5z"></path>	</g>	<g>		<path class="st3" d="M205.4,206.6c-0.5,0-1-0.2-1.4-0.6l-38.6-38.6c-0.8-0.8-0.8-2,0-2.8c0.8-0.8,2-0.8,2.8,0l38.6,38.6   c0.8,0.8,0.8,2,0,2.8C206.5,206.4,206,206.6,205.4,206.6z"></path>	</g>	<g>		<path class="st3" d="M90.8,91.9c-0.5,0-1-0.2-1.4-0.6l-41-41c-0.8-0.8-0.8-2,0-2.8c0.8-0.8,2-0.8,2.8,0l41,41c0.8,0.8,0.8,2,0,2.8   C91.8,91.7,91.3,91.9,90.8,91.9z"></path>	</g>	<g>		<circle class="st1" cx="128.9" cy="127" r="47"></circle>	</g>	<g>		<path class="st3" d="M128.9,176c-27,0-49-22-49-49s22-49,49-49c27,0,49,22,49,49S155.9,176,128.9,176z M128.9,82   c-24.8,0-45,20.2-45,45s20.2,45,45,45c24.8,0,45-20.2,45-45S153.7,82,128.9,82z"></path>	</g>	<g>		<g>			<path class="st3" d="M129.3,146.5h-2.7c-5.2,0-9.5-4.1-9.7-9.2c0-0.1,0-0.2,0-0.3v-0.3h4c0,3.2,2.6,5.8,5.8,5.8h2.7    c3.1,0,5.7-2.5,5.7-5.7c0-1.8-0.8-3.4-2.2-4.4l-12.1-8.9c-2.4-1.8-3.8-4.6-3.8-7.5c0-5.4,4.4-9.8,9.8-9.8h3.5    c5.5,0,10,4.4,10,9.8v0.8c0,1.1-0.9,2-2,2c-1.1,0-2-0.9-2-2v-0.8c0-3.2-2.7-5.8-6-5.8h-3.5c-3.2,0-5.8,2.6-5.8,5.8    c0,1.7,0.8,3.3,2.2,4.3l12.1,8.9c2.4,1.8,3.8,4.6,3.8,7.5C139,142.2,134.6,146.5,129.3,146.5z"></path>		</g>		<g>			<path class="st3" d="M128.5,108.2c-1.1,0-2-0.9-2-2v-4.3c0-1.1,0.9-2,2-2c1.1,0,2,0.9,2,2v4.3    C130.5,107.3,129.6,108.2,128.5,108.2z"></path>		</g>		<g>			<path class="st3" d="M128.5,154c-1.1,0-2-0.9-2-2v-4.3c0-1.1,0.9-2,2-2c1.1,0,2,0.9,2,2v4.3C130.5,153.1,129.6,154,128.5,154z"></path>		</g>	</g></g></svg>