<svg xmlns="http://www.w3.org/2000/svg" xmlns:xlink="http://www.w3.org/1999/xlink" id="icons" x="0px" y="0px" viewBox="0 0 256 256" style="enable-background:new 0 0 256 256;" xml:space="preserve"><style type="text/css">	.st0{fill:#FFFFFF;}	.st1{fill:#F9EEFF;}	.st2{fill:#E9CBFF;}	.st3{fill:#240046;}	.st4{fill:#E0AAFF;}	.st5{fill:#C77DFF;}</style><g>	<g>		<path class="st0" d="M234.2,177l-4.1-3.8c-4.8-4.5-12.2-4.6-17.1-0.3l-26.3,22.9h-11.3v-8.2c0-6-4.8-10.8-10.8-10.8h-28.2   l-34.4-7.8c-5.8-1.1-11.7-0.5-17.1,1.9l-12,5.3H51.5v47.6l21.5,0.1l14.8,7.5c3.5,1.8,7.5,2.5,11.4,2.1l83.5-11.2   c2.6-0.4,5.1-1.5,7.1-3.3l44.4-40.6C234.6,178,234.6,177.4,234.2,177z"></path>	</g>	<g>		<path class="st1" d="M230.2,173.2c-0.2-0.2-0.4-0.4-0.6-0.5l-39.7,36.3c-2,1.8-4.4,3-7.1,3.3l-83.5,11.2   c-3.9,0.4-7.9-0.3-11.4-2.1L73,213.9l-21.5-0.1v10l21.5,0.1l14.8,7.5c3.5,1.8,7.5,2.5,11.4,2.1l83.5-11.2c2.6-0.4,5.1-1.5,7.1-3.3   l44.4-40.6c0.4-0.4,0.4-1,0-1.4L230.2,173.2z"></path>	</g>	<g>		<g>			<path class="st2" d="M110.2,24.6c-9.5,4-17.1,11.5-21.2,21c-8.5,19.9-2.9,39.3,9.8,51.3c4.1,3.9,6.4,9.3,6.4,14.9l0.3,7.1v12.9    H153v-12.9v-7.1c0-5.6,2.2-11,6.3-14.8c8.6-8,13.9-19.4,13.9-32.1C173.2,34.4,142.4,11.2,110.2,24.6z"></path>		</g>		<g>			<path class="st1" d="M106.2,96.9c-12.7-12-18.3-31.3-9.8-51.3c4.1-9.5,11.7-17,21.2-21c5.1-2.1,10.1-3.3,15.1-3.8    c-7.1-0.6-14.8,0.5-22.5,3.8c-9.5,4-17.1,11.5-21.2,21c-8.5,19.9-2.9,39.3,9.8,51.3c4.1,3.9,6.4,9.3,6.4,14.9v20.1h7.4v-20.1    C112.6,106.1,110.3,100.8,106.2,96.9z"></path>		</g>		<g id="XMLID_56_">			<path class="st0" d="M121.4,154.9v1.1c0,4.2,3.4,7.7,7.7,7.7l0,0c4.2,0,7.7-3.4,7.7-7.7v-1.1h11c2.2,0,4.2-1.3,5.1-3.3l0.3-0.7    c0.9-2.1,1.4-4.3,1.4-6.6v-13.5c0-1.9-1.5-3.4-3.4-3.4h-42.6c-1.9,0-3.4,1.5-3.4,3.4v13.5c0,2.3,0.5,4.6,1.5,6.7l1.2,2.5    c0.4,0.8,1.2,1.3,2,1.3l2.9-0.1L121.4,154.9z"></path>		</g>		<g>			<path class="st2" d="M121.4,155.1v1c0,4.2,3.4,7.7,7.7,7.7h0c4.2,0,7.7-3.4,7.7-7.7v-1H121.4z"></path>		</g>		<g id="XMLID_55_">			<path class="st3" d="M129.1,165.7c-5.3,0-9.7-4.3-9.7-9.7v-1.1c0-1.1,0.9-2,2-2s2,0.9,2,2v1.1c0,3.1,2.6,5.7,5.7,5.7    c3.1,0,5.7-2.6,5.7-5.7v-3.1h13c1.4,0,2.7-0.8,3.3-2.1l0.3-0.7c0.8-1.8,1.2-3.7,1.2-5.7v-13.5c0-0.8-0.6-1.4-1.4-1.4h-42.6    c-0.8,0-1.4,0.6-1.4,1.4v13.5c0,2,0.4,4,1.3,5.8l1.2,2.5c0,0.1,0.1,0.1,0.2,0.1l2.9-0.1c0,0,0,0,0,0c1.1,0,2,0.9,2,2    c0,1.1-0.9,2-2,2l-2.9,0.1c0,0,0,0-0.1,0c-1.6,0-3.1-1-3.8-2.4l-1.2-2.5c-1.1-2.3-1.6-4.9-1.6-7.5v-13.5c0-3,2.4-5.4,5.4-5.4    h42.6c3,0,5.4,2.4,5.4,5.4v13.5c0,2.6-0.5,5-1.6,7.4l-0.3,0.7c-1.2,2.7-3.9,4.5-6.9,4.5h-9C138.3,161.9,134.1,165.7,129.1,165.7z    "></path>		</g>		<g id="XMLID_50_">			<path class="st3" d="M153,120.9c-1.1,0-2-0.9-2-2v-7.1c0-6.2,2.5-12.1,6.9-16.3c8.6-8,13.3-18.9,13.3-30.7    c0-14.1-7-27.3-18.8-35.1c-12.1-8-27.2-9.2-41.4-3.3c-9,3.8-16.3,11-20.1,19.9c-7.6,17.7-4,36.5,9.3,49c4.5,4.2,7,10.2,7,16.3    v7.1c0,1.1-0.9,2-2,2s-2-0.9-2-2v-7.1c0-5.1-2.1-10-5.8-13.4C82.9,84.6,78.9,64.1,87.2,44.8c4.2-9.8,12.3-17.9,22.2-22    c15.5-6.5,31.9-5.2,45.1,3.6c12.9,8.6,20.6,23,20.6,38.4c0,12.8-5.2,24.8-14.6,33.6c-3.6,3.4-5.7,8.3-5.7,13.3v7.1    C155,120,154.1,120.9,153,120.9z"></path>		</g>		<g id="XMLID_49_">			<path class="st3" d="M135.1,137.5h-21.9c-1.1,0-2-0.9-2-2c0-1.1,0.9-2,2-2h21.9c1.1,0,2,0.9,2,2    C137.1,136.6,136.2,137.5,135.1,137.5z"></path>		</g>		<g id="XMLID_48_">			<path class="st3" d="M146.5,147.2h-21.9c-1.1,0-2-0.9-2-2c0-1.1,0.9-2,2-2h21.9c1.1,0,2,0.9,2,2    C148.5,146.3,147.6,147.2,146.5,147.2z"></path>		</g>	</g>	<g>		<g>			<path class="st3" d="M181,144.2c-1.1,0-2-0.9-2-2v-2c0-1.1,0.9-2,2-2c1.1,0,2,0.9,2,2v2C183,143.3,182.1,144.2,181,144.2z"></path>		</g>		<g>			<path class="st3" d="M181,153.7c-1.1,0-2-0.9-2-2v-2c0-1.1,0.9-2,2-2c1.1,0,2,0.9,2,2v2C183,152.8,182.1,153.7,181,153.7z"></path>		</g>		<g>			<path class="st3" d="M177.5,148.2h-2c-1.1,0-2-0.9-2-2c0-1.1,0.9-2,2-2h2c1.1,0,2,0.9,2,2C179.5,147.3,178.6,148.2,177.5,148.2z"></path>		</g>		<g>			<path class="st3" d="M186.5,148.2H185c-1.1,0-2-0.9-2-2c0-1.1,0.9-2,2-2h1.5c1.1,0,2,0.9,2,2    C188.5,147.3,187.6,148.2,186.5,148.2z"></path>		</g>	</g>	<g>		<g>			<path class="st3" d="M78,129.2c-1.1,0-2-0.9-2-2v-2c0-1.1,0.9-2,2-2c1.1,0,2,0.9,2,2v2C80,128.3,79.1,129.2,78,129.2z"></path>		</g>		<g>			<path class="st3" d="M78,138.7c-1.1,0-2-0.9-2-2v-2c0-1.1,0.9-2,2-2c1.1,0,2,0.9,2,2v2C80,137.8,79.1,138.7,78,138.7z"></path>		</g>		<g>			<path class="st3" d="M74.5,133.2h-2c-1.1,0-2-0.9-2-2c0-1.1,0.9-2,2-2h2c1.1,0,2,0.9,2,2C76.5,132.3,75.6,133.2,74.5,133.2z"></path>		</g>		<g>			<path class="st3" d="M83.5,133.2H82c-1.1,0-2-0.9-2-2c0-1.1,0.9-2,2-2h1.5c1.1,0,2,0.9,2,2C85.5,132.3,84.6,133.2,83.5,133.2z"></path>		</g>	</g>	<g>		<path class="st3" d="M61,105.6c-1.1,0-2.1-0.6-2.6-1.6c-1.6-3.1-3.1-4.7-6.3-6.3c-1-0.5-1.6-1.5-1.6-2.6c0-1.1,0.6-2.1,1.6-2.6   c3.1-1.6,4.7-3.1,6.3-6.3c0.5-1,1.5-1.6,2.6-1.6c1.1,0,2.1,0.6,2.6,1.6c1.6,3.1,3.1,4.7,6.3,6.3c1,0.5,1.6,1.5,1.6,2.6   s-0.6,2.1-1.6,2.6l0,0c-3.1,1.6-4.7,3.1-6.3,6.3C63.1,105,62.1,105.6,61,105.6z M55.6,95.1c2.4,1.4,4,3,5.4,5.4   c1.4-2.4,3-4,5.4-5.4c-2.4-1.4-4-3-5.4-5.4C59.6,92.1,58,93.7,55.6,95.1z"></path>	</g>	<g>		<path class="st3" d="M43.6,40.7c-1.1,0-2-0.6-2.5-1.5c-1.3-2.6-2.5-3.7-5.1-5.1c-0.9-0.5-1.5-1.4-1.5-2.5c0-1.1,0.6-2,1.5-2.5   c2.6-1.3,3.7-2.5,5.1-5.1c0.5-0.9,1.4-1.5,2.5-1.5c1.1,0,2,0.6,2.5,1.5c1.3,2.6,2.5,3.7,5.1,5.1c0.9,0.5,1.5,1.4,1.5,2.5   c0,1.1-0.6,2-1.5,2.5l0,0c-2.6,1.3-3.7,2.5-5,5.1C45.6,40.1,44.6,40.7,43.6,40.7z M39.7,31.7c1.6,1.1,2.8,2.2,3.8,3.8   c1.1-1.6,2.2-2.8,3.8-3.8c-1.6-1.1-2.8-2.2-3.8-3.8C42.5,29.4,41.3,30.6,39.7,31.7z M50.2,32.4L50.2,32.4L50.2,32.4z"></path>	</g>	<g>		<path class="st3" d="M203.1,111.7c-1.1,0-2-0.6-2.5-1.5c-1.4-2.7-2.7-4-5.4-5.4c-1-0.5-1.5-1.5-1.5-2.5c0-1.1,0.6-2,1.5-2.5   c2.7-1.4,4-2.7,5.4-5.4c0.5-1,1.5-1.5,2.5-1.5c1.1,0,2,0.6,2.5,1.5c1.4,2.7,2.7,4,5.4,5.4c1,0.5,1.5,1.5,1.5,2.5   c0,1.1-0.6,2-1.5,2.5h0c-2.7,1.4-4,2.7-5.4,5.4C205.1,111.1,204.1,111.7,203.1,111.7z M198.8,102.3c1.8,1.2,3.1,2.5,4.3,4.3   c1.2-1.8,2.5-3.1,4.3-4.3c-1.8-1.2-3.1-2.5-4.3-4.3C201.9,99.8,200.6,101.1,198.8,102.3z M210,103L210,103L210,103z M209.1,101.2   L209.1,101.2L209.1,101.2z"></path>	</g>	<g>		<path class="st3" d="M212.1,40.7c-1.1,0-2-0.6-2.5-1.5c-1.4-2.7-2.7-4-5.4-5.4c-1-0.5-1.5-1.5-1.5-2.5c0-1.1,0.6-2,1.5-2.5   c2.7-1.4,4-2.7,5.4-5.4c0.5-1,1.5-1.5,2.5-1.5c1.1,0,2,0.6,2.5,1.5c1.4,2.7,2.7,4,5.4,5.4c1,0.5,1.5,1.5,1.5,2.5   c0,1.1-0.6,2-1.5,2.5h0c-2.7,1.4-4,2.7-5.4,5.4C214.1,40.1,213.1,40.7,212.1,40.7z M207.8,31.3c1.8,1.2,3.1,2.5,4.3,4.3   c1.2-1.8,2.5-3.1,4.3-4.3c-1.8-1.2-3.1-2.5-4.3-4.3C210.9,28.8,209.6,30.1,207.8,31.3z M219,32L219,32L219,32z M218.1,30.2   L218.1,30.2L218.1,30.2z"></path>	</g>	<g>		<circle class="st2" cx="176" cy="106.2" r="3.5"></circle>	</g>	<g>		<circle class="st2" cx="70.5" cy="47.7" r="4"></circle>	</g>	<g>		<circle class="st2" cx="41.5" cy="126.7" r="2"></circle>	</g>	<g>		<circle class="st2" cx="194" cy="51.2" r="4.5"></circle>	</g>	<g>		<path class="st3" d="M174.5,196.3c-1.1,0-2-0.9-2-2v-6.2c0-4.9-4-8.8-8.8-8.8h-28.4l-34.6-7.8c-5.3-1-10.8-0.4-15.9,1.8l-12.5,5.5   l-3.8-0.6c-1.1-0.2-1.8-1.2-1.6-2.3c0.2-1.1,1.2-1.8,2.3-1.6l2.7,0.4l11.4-5c5.8-2.6,12.1-3.3,18.3-2l34.2,7.7h28   c7.1,0,12.8,5.8,12.8,12.8v6.2C176.5,195.4,175.6,196.3,174.5,196.3z"></path>	</g>	<g>		<path class="st3" d="M96,236.1c-3.5,0-7-0.8-10.2-2.4l-14.4-7.3l-2.8-0.1c-1.1,0-2-0.9-1.9-2c0-1.1,1-2,2-1.9l3.7,0.1l15.2,7.7   c3.2,1.6,6.8,2.3,10.3,1.9l83.5-11.2c2.2-0.3,4.3-1.3,6-2.8l43.6-39.8l-3.2-3c-4-3.8-10.2-3.9-14.4-0.3l-26.8,23.4h-53   c-1.1,0-2-0.9-2-2c0-1.1,0.9-2,2-2H185l25.7-22.4c5.7-5,14.3-4.8,19.8,0.4l4.1,3.8c0.6,0.6,0.9,1.3,0.9,2.1c0,0.8-0.4,1.6-1,2.1   L190.2,221c-2.3,2.1-5.1,3.4-8.2,3.8L98.5,236C97.6,236.1,96.8,236.1,96,236.1z"></path>	</g>	<g>		<path class="st4" d="M56.6,165.3H22.5v70h34.1c2.7,0,4.9-2.2,4.9-4.9v-60.2C61.5,167.5,59.3,165.3,56.6,165.3z"></path>	</g>	<g>		<path class="st5" d="M56.6,218.3H22.5v17h34.1c2.7,0,4.9-2.2,4.9-4.9v-17C61.5,216.1,59.3,218.3,56.6,218.3z"></path>	</g>	<g>		<path class="st3" d="M56.6,237.3H22.5c-1.1,0-2-0.9-2-2c0-1.1,0.9-2,2-2h34.1c1.6,0,2.9-1.3,2.9-2.9v-60.2c0-1.6-1.3-2.9-2.9-2.9   H22.5c-1.1,0-2-0.9-2-2c0-1.1,0.9-2,2-2h34.1c3.8,0,6.9,3.1,6.9,6.9v60.2C63.5,234.2,60.4,237.3,56.6,237.3z"></path>	</g>	<g>		<path class="st3" d="M122.3,80.4l-10.2-10.2c-0.8-0.8-0.8-2,0-2.8c0.8-0.8,2-0.8,2.8,0l7.4,7.4l20.9-20.9c0.8-0.8,2-0.8,2.8,0   c0.8,0.8,0.8,2,0,2.8L122.3,80.4z"></path>	</g></g></svg>